<?xml version="1.0" encoding="utf-8"?>
<!-- Generator: Adobe Illustrator 25.4.1, SVG Export Plug-In . SVG Version: 6.00 Build 0)  -->
<svg version="1.1" id="Capa_1" xmlns="http://www.w3.org/2000/svg" xmlns:xlink="http://www.w3.org/1999/xlink" x="0px" y="0px"
	 viewBox="0 0 160 46.7" style="enable-background:new 0 0 160 46.7;" xml:space="preserve">
<style type="text/css">
	.st0{fill:#263470;}
	.st1{fill:#36ADAD;}
</style>
<g>
	<g>
		<g>
			<g id="iBt1uD.tif_00000111900515792600919510000001110190322482665120_">
				<g>
					<g>
						<path class="st0" d="M14.7,6.3c0-0.7,0.1-1.3,0.5-1.9c0.5-0.6,1.1-1,1.9-1c1.3,0,2.6,0,3.9,0c1.3,0,2.5,1.1,2.5,2.5
							c0,0.1,0,0.2,0,0.3c0.7,0,1.4,0,2.1,0c0.5,0,0.9,0.2,1.2,0.6c0,0.1,0.2,0.1,0.3,0.1c1.1,0,2.2,0,3.3,0c2.2,0,4.1,1.9,4.1,4.1
							c0,6.3,0,12.7,0,19c0,0.7-0.2,1.1-0.8,1.2c-0.6,0.2-1.2-0.2-1.3-0.9c0-0.2,0-0.5,0-0.7c0-6.2,0-12.3,0-18.5c0-1-0.9-2-2-2.1
							c-1.2,0-2.3,0-3.5,0c0,0-0.1,0-0.1,0c0,0.3,0,0.6,0,0.9c0,0.8-0.5,1.2-1.2,1.2c-4.5,0-8.9,0-13.4,0c-0.8,0-1.2-0.4-1.2-1.2
							c0-0.3,0-0.6,0-0.9c-0.1,0-0.3,0-0.4,0c-1,0-2,0-3,0c-1.4-0.1-2.3,1.2-2.3,2.3c0,6.4,0,12.8,0,19.2c0,0.1,0,0.2,0,0.4
							c0.2,0,0.3,0,0.4,0c1.9,0,3.8,0,5.8,0c1.2,0,2,0.8,2,2c0,2,0,4.1,0,6.1c0,0.1,0,0.2,0,0.4c0.2,0,0.3,0,0.4,0
							c1.8,0,3.7,0,5.5,0c0.6,0,1,0.3,1.1,0.9c0.1,0.6-0.3,1.1-0.9,1.2c-0.1,0-0.3,0-0.4,0c-2,0-4,0-6,0c-1,0-1.8-0.3-2.5-1
							c-2.2-2.2-4.4-4.5-6.7-6.7c-0.6-0.6-0.8-1.2-0.8-2c0-7,0-14,0-21c0-1.9,1.6-3.7,3.4-4c0.3,0,0.5-0.1,0.8-0.1
							c1.1,0,2.2,0,3.3,0c0.2,0,0.3,0,0.4-0.2c0.2-0.4,0.6-0.6,1-0.6C13.2,6.3,13.9,6.3,14.7,6.3z"/>
					</g>
					<g>
						<path class="st0" d="M26.4,37.7c-0.6,0.6-1.3,1.3-1.9,1.9c-0.4,0.4-0.9,0.4-1.3,0.1c-0.3-0.2-0.4-0.5-0.4-0.9
							c0-2.2,0-4.5,0-6.7c0-1.3,0-2.6,0-3.9c0-0.5,0.2-0.8,0.6-1c0.4-0.2,0.8-0.1,1.1,0.3c2.6,2.5,5.2,4.9,7.8,7.4
							c0.4,0.4,0.5,0.8,0.3,1.1c-0.2,0.4-0.6,0.6-1,0.6c-0.8,0-1.6,0-2.5,0c0.2,0.5,0.4,0.9,0.6,1.3c0.4,0.8,0.7,1.5,1.1,2.3
							c0.3,0.6,0.1,1.1-0.5,1.4c-0.3,0.1-0.5,0.3-0.8,0.4c-0.6,0.2-1,0.1-1.3-0.5c-0.6-1.2-1.1-2.3-1.7-3.5
							C26.5,37.9,26.4,37.8,26.4,37.7z"/>
					</g>
				</g>
			</g>
			<rect x="32.7" y="38.5" class="st1" width="2.1" height="2.1"/>
			<rect x="30.7" y="42.3" class="st1" width="2.1" height="2.1"/>
			<path class="st1" d="M27.4,16.5l-0.9-0.9c-0.3-0.3-0.8-0.3-1.2,0L18,23c-0.3,0.3-0.8,0.3-1.2,0l-3.1-3.1c-0.3-0.3-0.8-0.3-1.2,0
				l-0.9,0.9c-0.3,0.3-0.3,0.8,0,1.2l5.1,5.1c0.3,0.3,0.8,0.3,1.2,0l1.5-1.5l0,0l7.9-7.9C27.7,17.4,27.7,16.9,27.4,16.5z"/>
		</g>
	</g>
	<g>
		<g>
			<path class="st0" d="M63.9,27.2c-0.9,4.7-4.1,7.9-9,7.9c-5.5,0-9.6-3.7-9.6-10.9c0-7.1,3.7-11.4,9.7-11.4c5.2,0,8.5,3.3,8.9,7.5
				h-4.4c-0.6-2.4-2.4-3.8-4.5-3.8c-3.6,0-5.3,2.8-5.3,7.3c0,4.6,1.7,7.3,5.1,7.3c2.6,0,4.1-1.5,4.7-4.1H63.9z"/>
			<path class="st0" d="M64.9,34.4V13.3H69v21.1H64.9z"/>
			<path class="st0" d="M80.4,34.4c-0.1-0.4-0.2-0.9-0.3-1.4c-1,1.1-2.6,1.8-4.7,1.8c-3.5,0-5.2-1.7-5.2-4.2c0-4.5,3-5,7.1-5.5
				c2-0.3,2.6-0.7,2.6-1.8c0-1-1-1.6-2.6-1.6c-1.9,0-2.6,0.9-2.8,2.3h-3.8c0.1-3.2,1.8-5.4,6.8-5.4c4.9,0,6.6,2.2,6.6,6.1v9.8H80.4z
				 M80.1,26.8c-0.4,0.4-1.1,0.6-2.6,0.9c-2.3,0.4-3.1,1.1-3.1,2.4c0,1.2,0.7,1.7,2,1.7c2.1,0,3.7-1.5,3.7-3.4L80.1,26.8z"/>
			<path class="st0" d="M95.3,23.6c-0.2-1.5-1-2-2.9-2c-1.5,0-2.4,0.4-2.4,1.3c0,0.9,0.8,1.3,2.5,1.8c1.8,0.5,3.4,0.8,4.6,1.3
				c1.6,0.7,2.5,1.7,2.5,3.7c0,3.2-2.4,5.1-6.8,5.1c-4.7,0-7.4-2.2-7.4-5.4h4.2c0,1.4,1.2,2.3,3.2,2.3c1.4,0,2.7-0.4,2.7-1.6
				c0-1.1-1.2-1.4-2.5-1.8c-2.6-0.6-4.1-1.1-5.2-1.8c-1.4-0.9-1.9-2.1-1.9-3.5c0-2.6,1.8-4.6,6.5-4.6c4.5,0,6.5,1.8,6.7,5.1H95.3z"
				/>
			<path class="st0" d="M110.1,23.6c-0.2-1.5-1-2-2.9-2c-1.5,0-2.4,0.4-2.4,1.3c0,0.9,0.8,1.3,2.5,1.8c1.8,0.5,3.4,0.8,4.6,1.3
				c1.6,0.7,2.5,1.7,2.5,3.7c0,3.2-2.4,5.1-6.8,5.1c-4.7,0-7.4-2.2-7.4-5.4h4.2c0,1.4,1.2,2.3,3.2,2.3c1.4,0,2.7-0.4,2.7-1.6
				c0-1.1-1.2-1.4-2.5-1.8c-2.6-0.6-4.1-1.1-5.2-1.8c-1.4-0.9-1.9-2.1-1.9-3.5c0-2.6,1.8-4.6,6.5-4.6c4.5,0,6.5,1.8,6.7,5.1H110.1z"
				/>
			<path class="st0" d="M130,34.4l-1.3-4.3H121l-1.5,4.3h-4.6l7.4-20.9h5.1l7.3,20.9H130z M124.8,18.2L124.8,18.2l-2.7,8.3h5.3
				L124.8,18.2z"/>
			<path class="st0" d="M135.9,17.1v-3.8h4.1v3.8H135.9z M135.9,34.4V18.9h4.1v15.5H135.9z"/>
			<path class="st0" d="M152.6,34.4l0-1.9c-1,1.6-2.4,2.3-4.3,2.3c-3.9,0-6.7-3.1-6.7-8.3c0-4.7,2.4-8,6.3-8c1.9,0,3.4,0.8,4.6,2.4
				v-7.7h4v21.1H152.6z M152.6,27c0-3.4-1.2-5-3.4-5c-2.4,0-3.5,1.6-3.5,4.8c0,2.8,1.4,4.7,3.5,4.7C151.1,31.5,152.6,29.6,152.6,27z
				"/>
		</g>
	</g>
</g>
</svg>
